<svg width="241" height="383" viewBox="0 0 241 383" fill="none" xmlns="http://www.w3.org/2000/svg">
<path d="M0 104.42V8C0 3.58172 3.58172 0 7.99999 0H231C235.418 0 239 3.58172 239 8V100.958C239 107.045 231.269 110.946 226.174 114.279C221.594 117.276 218.304 123.657 215.96 130.706C213.389 138.44 201.627 133.558 193.993 136.412C188.998 138.279 187.924 158.925 167.5 153.5C138.428 145.778 152.826 217.225 108.127 172.704C106.187 170.771 105.402 167.89 106.067 165.234L126.041 85.3374C127.438 79.7481 122.647 74.5588 116.964 75.5059L78.6531 81.8912C78.2184 81.9636 77.7794 81.9976 77.3389 82.0081C70.4246 82.1724 54.4029 84.9198 44 97.5C27.9671 116.889 7.79246 115.482 1.21371 108.182C0.300559 107.169 0 105.784 0 104.42Z" fill="black"/>
<path d="M30 349C26.888 336.033 19.4043 320.965 11.8006 309.245C7.92133 303.266 0 306.186 0 313.314V374.5C0 378.918 3.58172 382.5 8 382.5H134.548C137.837 382.5 140.989 380.368 140.36 377.14C139.315 371.778 134.35 363.35 120 349C94.5 323.5 36 374 30 349Z" fill="black"/>
<path d="M233 116C228.582 116 225 119.582 225 124C225 128.418 228.582 132 233 132C237.418 132 241 128.418 241 124C241 119.582 237.418 116 233 116ZM231.5 340C231.5 340.828 232.172 341.5 233 341.5C233.828 341.5 234.5 340.828 234.5 340H231.5ZM231.5 124V340H234.5V124H231.5Z" fill="black"/>
</svg>
