<svg width="251" height="394" viewBox="0 0 251 394" fill="none" xmlns="http://www.w3.org/2000/svg">
<path d="M-7 103.741V-9C-7 -10.1046 -6.10457 -11 -5 -11H255C256.105 -11 257 -10.1046 257 -9V109.577C257 111.091 255.347 112.053 253.915 111.56C234.944 105.033 228.291 139.165 226.282 154.49C226.019 156.5 223.111 156.969 222.157 155.181C197.558 109.063 211.924 163.965 178.021 155.141C145.35 146.638 162.379 226.826 109.806 173.301C109.318 172.805 109.088 172.048 109.26 171.375L134.738 71.5137C135.095 70.1168 133.901 68.8131 132.478 69.0454L79.3191 77.7268C79.2125 77.7442 79.1105 77.7528 79.0025 77.7534C71.7136 77.7924 53.3917 80.5599 41.6025 94.5294C22.91 116.679 -0.879133 113.754 -6.72678 104.72C-6.91528 104.429 -7 104.088 -7 103.741Z" fill="#0075FF"/>
<path d="M26.1381 366.741C21.335 347.131 7.10446 323.08 -3.74315 310.681C-4.90991 309.347 -7 310.2 -7 311.972V401C-7 402.105 -6.10457 403 -5 403H146.291C147.109 403 147.865 402.509 148.05 401.713C149.285 396.415 146.294 387.065 125.552 366.741C97.3849 339.141 32.7657 393.8 26.1381 366.741Z" fill="#0075FF"/>
<path d="M237 170C237 290.478 237 292 237 292" stroke="#0075FF" stroke-width="5" stroke-linecap="round"/>
</svg>
