<svg width="80" height="59" viewBox="0 0 80 59" fill="none" xmlns="http://www.w3.org/2000/svg">
<path fill-rule="evenodd" clip-rule="evenodd" d="M10.0432 45.7435H5.04576V47.2675H8.25131C7.96912 48.906 6.77115 50.0718 5.04576 50.0718C3.04813 50.0718 1.77552 48.5328 1.77552 46.5053C1.77552 44.4636 3.04813 42.9391 5.04576 42.9391C6.20352 42.9391 7.12426 43.4588 7.69011 44.2979L9.20057 43.4895C8.31666 42.2003 6.83734 41.4006 5.04576 41.4006C2.08631 41.4006 0 43.5607 0 46.5053C0 49.4503 2.08631 51.6104 5.04576 51.6104C7.99055 51.6104 10.0917 49.4503 10.0917 46.5053C10.0917 46.245 10.0753 45.9907 10.0432 45.7435Z" fill="#0499DB"/>
<path fill-rule="evenodd" clip-rule="evenodd" d="M16.7878 50.0718C14.7902 50.0718 13.5177 48.5328 13.5177 46.5053C13.5177 44.4636 14.7902 42.9391 16.7878 42.9391C18.7706 42.9391 20.0581 44.4636 20.0581 46.5053C20.0581 48.5328 18.7706 50.0718 16.7878 50.0718ZM16.7878 51.6104C19.7325 51.6104 21.8339 49.4503 21.8339 46.5053C21.8339 43.5607 19.7325 41.4006 16.7878 41.4006C13.8284 41.4006 11.7422 43.5607 11.7422 46.5053C11.7422 49.4503 13.8284 51.6104 16.7878 51.6104Z" fill="#0499DB"/>
<path fill-rule="evenodd" clip-rule="evenodd" d="M28.6676 51.6104C30.6505 51.6104 31.8785 50.5599 32.633 49.3762L31.1534 48.6362C30.6799 49.4503 29.7178 50.0718 28.6676 50.0718C26.714 50.0718 25.2641 48.5624 25.2641 46.5053C25.2641 44.419 26.714 42.9391 28.6676 42.9391C29.7178 42.9391 30.6799 43.5458 31.1534 44.3746L32.6184 43.605C31.8931 42.4215 30.6505 41.4006 28.6676 41.4006C25.7524 41.4006 23.4883 43.4571 23.4883 46.5053C23.4883 49.5386 25.7524 51.6104 28.6676 51.6104Z" fill="black"/>
<path fill-rule="evenodd" clip-rule="evenodd" d="M36.511 46.2244V51.4331H34.7798V41.563H39.1154C41.0688 41.563 42.356 42.8208 42.356 44.656C42.356 46.4022 41.2017 47.3637 40.0032 47.5562L42.43 51.4331H40.4175L38.2422 47.7485L37.3426 46.2244H38.8933C39.8699 46.2244 40.5802 45.6031 40.5802 44.641C40.5802 43.694 39.8699 43.0873 38.8933 43.0873H36.511V46.2244Z" fill="black"/>
<path fill-rule="evenodd" clip-rule="evenodd" d="M44.8579 51.4331H51.6204V49.9089H46.5891V47.2603H51.5166V45.736H46.5891V45.6325V43.0873H51.6204V41.563H44.8579V51.4331Z" fill="black"/>
<path fill-rule="evenodd" clip-rule="evenodd" d="M58.1029 43.5581L55.1137 51.4331H53.146L57.023 41.563H59.1834L63.0601 51.4331H61.0922L58.1029 43.5581Z" fill="black"/>
<path fill-rule="evenodd" clip-rule="evenodd" d="M67.7131 51.4331V43.0873H70.7021V41.563H62.9927V43.0873H65.9816V51.4331H67.7131Z" fill="black"/>
<path fill-rule="evenodd" clip-rule="evenodd" d="M74.6148 43.0873H79.6458V41.563H72.8833V51.4331H79.6458V49.9089H74.6148V47.2603H79.5423V45.736H74.6148V45.6325V43.0873Z" fill="black"/>
<path d="M50.4861 56.7301C50.1634 56.7301 49.9388 56.9874 49.9388 57.3049C49.9388 57.6228 50.1683 57.8846 50.4907 57.8846C50.8128 57.8846 51.0377 57.6273 51.0377 57.3098C51.0377 56.992 50.8082 56.7301 50.4861 56.7301ZM50.4861 58.1465C49.9875 58.1465 49.6396 57.7686 49.6396 57.3098C49.6396 56.8507 49.9923 56.468 50.4907 56.468C50.989 56.468 51.3366 56.846 51.3366 57.3049C51.3366 57.7641 50.9844 58.1465 50.4861 58.1465Z" fill="#0499DB"/>
<path d="M52.5504 58.1465C52.0775 58.1465 51.7251 57.7778 51.7251 57.3098C51.7251 56.846 52.0705 56.468 52.5621 56.468C52.861 56.468 53.042 56.5726 53.1972 56.7209L53.0139 56.9317C52.8842 56.8112 52.7453 56.7301 52.5596 56.7301C52.2488 56.7301 52.024 56.9849 52.024 57.3049C52.024 57.6249 52.2488 57.8846 52.5596 57.8846C52.7591 57.8846 52.8864 57.8033 53.0255 57.6735L53.2088 57.8592C53.0393 58.0351 52.8539 58.1465 52.5504 58.1465Z" fill="#0499DB"/>
<path d="M57.3883 58.1465C56.9154 58.1465 56.563 57.7778 56.563 57.3098C56.563 56.846 56.9084 56.468 57.4 56.468C57.6988 56.468 57.8799 56.5726 58.035 56.7209L57.8518 56.9317C57.7221 56.8112 57.5832 56.7301 57.3978 56.7301C57.0867 56.7301 56.8619 56.9849 56.8619 57.3049C56.8619 57.6249 57.0867 57.8846 57.3978 57.8846C57.597 57.8846 57.7245 57.8033 57.8634 57.6735L58.0467 57.8592C57.8775 58.0351 57.6918 58.1465 57.3883 58.1465Z" fill="#0499DB"/>
<path d="M59.3743 56.7301C59.0516 56.7301 58.827 56.9874 58.827 57.3049C58.827 57.6228 59.0564 57.8846 59.3789 57.8846C59.701 57.8846 59.9258 57.6273 59.9258 57.3098C59.9258 56.992 59.6964 56.7301 59.3743 56.7301ZM59.3743 58.1465C58.8756 58.1465 58.5278 57.7686 58.5278 57.3098C58.5278 56.8507 58.8805 56.468 59.3789 56.468C59.8772 56.468 60.2247 56.846 60.2247 57.3049C60.2247 57.7641 59.8726 58.1465 59.3743 58.1465Z" fill="#0499DB"/>
<path d="M68.6186 56.7301C68.2962 56.7301 68.0716 56.9874 68.0716 57.3049C68.0716 57.6228 68.3011 57.8846 68.6235 57.8846C68.9456 57.8846 69.1705 57.6273 69.1705 57.3098C69.1705 56.992 68.941 56.7301 68.6186 56.7301ZM68.6186 58.1465C68.1203 58.1465 67.7725 57.7686 67.7725 57.3098C67.7725 56.8507 68.1251 56.468 68.6235 56.468C69.1218 56.468 69.4694 56.846 69.4694 57.3049C69.4694 57.7641 69.1172 58.1465 68.6186 58.1465Z" fill="#0499DB"/>
<path d="M45.6292 56.825L45.3508 57.4744H45.9097L45.6292 56.825ZM46.4802 58.1187H46.1786L46.014 57.7268H45.2468L45.0797 58.1187H44.7876L45.5016 56.4845H45.7659L46.4802 58.1187Z" fill="#0499DB"/>
<path d="M64.7195 56.825L64.4411 57.4744H64.9997L64.7195 56.825ZM65.57 58.1187H65.2686L65.1041 57.7268H64.3368L64.1698 58.1187H63.8779L64.5917 56.4845H64.8562L65.57 58.1187Z" fill="#0499DB"/>
<path d="M72.6091 56.825L72.3308 57.4744H72.8897L72.6091 56.825ZM73.4602 58.1187H73.1586L72.994 57.7268H72.2267L72.0597 58.1187H71.7676L72.4816 56.4845H72.7459L73.4602 58.1187Z" fill="#0499DB"/>
<path d="M77.6582 56.4962H77.9665L77.2917 58.1304H77.0415L76.3672 56.4962H76.6823L77.1715 57.7434L77.6582 56.4962Z" fill="#0499DB"/>
<path d="M49.3068 58.1187H48.9614L48.4072 57.3884L48.1547 57.6481V58.1187H47.8696V56.4961H48.1547V57.312L48.9266 56.4961H49.2768L48.602 57.1936L49.3068 58.1187Z" fill="#0499DB"/>
<path d="M54.0468 57.435V58.1187H53.7617V56.4961H54.0468V57.1706H54.8211V56.4961H55.1065V58.1187H54.8211V57.435H54.0468Z" fill="#0499DB"/>
<path d="M60.7314 56.4961H61.0166V57.8593H61.8695V58.1187H60.7314V56.4961Z" fill="#0499DB"/>
<path d="M62.374 56.4961H62.6591V57.8593H63.5123V58.1187H62.374V56.4961Z" fill="#0499DB"/>
<path d="M67.0762 57.6412C67.0762 57.5019 66.967 57.4212 66.7424 57.4212H66.2903V57.8662H66.7632C66.9581 57.8662 67.0762 57.7895 67.0762 57.6412ZM66.9859 56.9574C66.9859 56.825 66.8838 56.7485 66.7005 56.7485H66.2903V57.1798H66.6797C66.8629 57.1798 66.9859 57.1079 66.9859 56.9574ZM67.271 56.911C67.271 57.1101 67.1597 57.2126 67.0392 57.275C67.2294 57.3398 67.3613 57.4487 67.3613 57.6715C67.3613 57.9633 67.1227 58.1187 66.7611 58.1187H66.0098V56.4961H66.7378C67.0646 56.4961 67.271 56.6561 67.271 56.911Z" fill="#0499DB"/>
<path d="M70.6768 56.7558H70.2617V57.3004H70.6789C70.8827 57.3004 71.0127 57.1936 71.0127 57.0269C71.0127 56.8483 70.8876 56.7558 70.6768 56.7558ZM71.0173 58.1187L70.6187 57.553H70.2617V58.1187H69.9766V56.4961H70.6995C71.073 56.4961 71.3024 56.6931 71.3024 57.0106C71.3024 57.2796 71.1424 57.4416 70.9154 57.5043L71.3535 58.1187H71.0173Z" fill="#0499DB"/>
<path d="M74.4464 58.1187H74.1588V56.7601H73.6445V56.4961H74.9612V56.7601H74.4464V58.1187Z" fill="#0499DB"/>
<path d="M75.8178 56.4961V58.1187H75.5327V56.4961H75.8178Z" fill="#0499DB"/>
<path d="M37.5399 6.29013V12.5805L32.0974 15.7224L32.0928 3.14496L37.5399 6.29013Z" fill="black"/>
<path d="M53.8822 15.7173L48.4351 12.5802V6.29012L59.3297 12.5775L53.8868 15.72L53.8822 15.7173Z" fill="#0499DB"/>
<path d="M26.6455 18.8701L32.0929 15.725L37.5401 12.5801V18.8699L42.9875 15.725L48.435 18.8701L42.9921 22.0123L37.5407 25.1597L26.6455 18.8701Z" fill="#0499DB"/>
<path d="M42.9875 9.43489V15.725L37.54 18.8699V6.28999L48.4349 -8.74868e-05V6.28458V12.5801L42.9875 9.43489Z" fill="#FBBF11"/>
<path d="M37.5405 31.4517V25.16L42.9874 22.0151L48.4349 25.16L37.5405 31.4517Z" fill="#FBBF11"/>
<path d="M53.8819 28.2998L48.4347 25.16L42.9873 22.0151L48.4347 18.8702L42.9873 15.7251V9.43497L48.4347 12.5801L53.8865 15.7196L53.8819 28.2998Z" fill="black"/>
</svg>
